<svg width="38" height="38" viewBox="0 0 38 38" fill="none" xmlns="http://www.w3.org/2000/svg">
<path d="M19.011 37.3971C8.72867 37.3971 0.333008 29.0146 0.333008 18.7483C0.333008 8.48195 8.72867 0.0993652 19.011 0.0993652C29.2933 0.0993652 37.689 8.48195 37.689 18.7483C37.689 29.0146 29.2933 37.3971 19.011 37.3971ZM19.011 1.51216C9.48334 1.51216 1.74801 9.23544 1.74801 18.7483C1.74801 28.2611 9.48334 35.9843 19.011 35.9843C28.5387 35.9843 36.274 28.2611 36.274 18.7483C36.274 9.23544 28.5387 1.51216 19.011 1.51216Z" fill="white"/>
<path d="M15.7092 29.578H20.0485V18.6524H23.0672L23.3502 14.9791H19.9542C19.9542 14.9791 19.9542 13.5663 19.9542 12.907C19.9542 12.0594 20.1428 11.6826 20.9918 11.6826C21.6522 11.6826 23.3502 11.6826 23.3502 11.6826V7.91516C23.3502 7.91516 20.8975 7.91516 20.3315 7.91516C17.1242 7.91516 15.6148 9.32796 15.6148 12.0594C15.6148 14.414 15.6148 14.9791 15.6148 14.9791H13.3508V18.6524H15.6148V29.578H15.7092Z" fill="white"/>
</svg>
