<svg width="39" height="39" viewBox="0 0 39 39" fill="none" xmlns="http://www.w3.org/2000/svg">
<path d="M19.2697 38.3738C8.82935 38.3738 0.304688 29.8624 0.304688 19.4383C0.304688 9.01431 8.82935 0.50293 19.2697 0.50293C29.71 0.50293 38.2346 9.01431 38.2346 19.4383C38.2346 29.8624 29.71 38.3738 19.2697 38.3738ZM19.2697 1.93743C9.59561 1.93743 1.74143 9.77937 1.74143 19.4383C1.74143 29.0973 9.59561 36.9393 19.2697 36.9393C28.9437 36.9393 36.7979 29.0973 36.7979 19.4383C36.7979 9.77937 28.9437 1.93743 19.2697 1.93743Z" fill="white"/>
<path d="M29.231 24.603C29.231 24.5074 29.1353 24.5074 29.1353 24.5074C28.7521 23.8379 28.0817 23.0729 27.028 22.1165C26.5491 21.6384 26.2618 21.3515 26.166 21.2558C25.9744 20.9689 25.8787 20.682 25.9744 20.3951C26.0702 20.2039 26.3576 19.7257 26.9323 18.9606C27.2196 18.5781 27.507 18.2912 27.6027 18.0043C28.8479 16.2829 29.4226 15.2309 29.231 14.7528L29.1353 14.6571C29.1353 14.5615 28.9437 14.5615 28.7521 14.4659C28.5606 14.3702 28.369 14.3702 28.0817 14.4659H24.9208C24.825 14.4659 24.825 14.4659 24.7293 14.4659C24.6335 14.4659 24.6335 14.4659 24.6335 14.4659H24.5377L24.4419 14.5615C24.4419 14.6571 24.3461 14.6571 24.3461 14.7528C23.963 15.6135 23.5799 16.4742 23.1967 17.2392C22.9094 17.7174 22.7178 18.0999 22.4305 18.3868C22.2389 18.6737 22.0473 18.9606 21.8558 19.1519C21.6642 19.3432 21.5684 19.4388 21.4726 19.5344C21.3769 19.6301 21.2811 19.6301 21.1853 19.6301C21.0895 19.6301 21.0895 19.6301 20.9937 19.6301C20.898 19.5344 20.8022 19.4388 20.7064 19.3432C20.6106 19.2475 20.6106 19.0563 20.6106 18.9606C20.6106 18.7694 20.6106 18.6737 20.6106 18.4825C20.6106 18.3868 20.6106 18.1956 20.6106 17.9087C20.6106 17.7174 20.6106 17.5261 20.6106 17.4305C20.6106 17.1436 20.6106 16.8567 20.6106 16.4742C20.6106 16.1873 20.6106 15.9004 20.6106 15.7091C20.6106 15.5178 20.6106 15.3266 20.6106 15.1353C20.6106 14.944 20.6106 14.7528 20.6106 14.6571C20.6106 14.5615 20.5148 14.4659 20.5148 14.2746C20.419 14.179 20.419 14.0833 20.3233 13.9877C20.2275 13.8921 20.1317 13.8921 19.9401 13.7964C19.557 13.7008 19.0781 13.7008 18.4076 13.7008C17.0666 13.7008 16.2046 13.7964 15.7257 13.9877C15.5341 14.0833 15.4383 14.179 15.3426 14.2746C15.2468 14.4659 15.151 14.5615 15.2468 14.5615C15.7257 14.6571 16.013 14.7528 16.2046 15.0397L16.3004 15.1353C16.3962 15.2309 16.3962 15.4222 16.4919 15.6135C16.5877 15.9004 16.5877 16.0916 16.5877 16.3785C16.5877 16.9523 16.5877 17.3349 16.5877 17.7174C16.5877 18.0999 16.4919 18.3868 16.4919 18.5781C16.4919 18.7694 16.3962 18.9606 16.3004 19.0563C16.2046 19.1519 16.2046 19.2475 16.2046 19.3432C16.2046 19.3432 16.2046 19.3432 16.1088 19.4388C16.013 19.4388 15.9173 19.5344 15.8215 19.5344C15.7257 19.5344 15.6299 19.4388 15.4383 19.3432C15.2468 19.2475 15.151 19.0563 14.9594 18.9606C14.7679 18.7694 14.5763 18.4825 14.3847 18.1956C14.1932 17.9087 14.0016 17.5261 13.81 17.048L13.5227 16.7611C13.4269 16.5698 13.2353 16.2829 13.0438 15.9004C12.8522 15.5178 12.6606 15.1353 12.5649 14.7528C12.4691 14.5615 12.3733 14.4659 12.2775 14.3702H12.1817C12.1817 14.3702 12.0859 14.2746 11.9902 14.2746C11.8944 14.2746 11.7986 14.179 11.7028 14.179H8.63776C8.35042 14.179 8.15885 14.2746 7.96729 14.3702V14.4659C7.96729 14.4659 7.96729 14.5615 7.96729 14.6571C7.96729 14.7528 7.96729 14.8484 8.06307 14.944C8.54198 15.996 9.0209 16.9523 9.49981 17.9087C9.97872 18.865 10.4576 19.6301 10.8408 20.2039C11.2239 20.7777 11.607 21.3515 11.9902 21.8296C12.3733 22.3078 12.6606 22.6903 12.7564 22.786C12.8522 22.9772 12.948 23.0729 13.0438 23.0729L13.3311 23.3598C13.5227 23.551 13.81 23.7423 14.0974 24.0292C14.4805 24.3161 14.8636 24.5074 15.2468 24.7943C15.6299 24.9855 16.1088 25.2724 16.6835 25.3681C17.2582 25.5594 17.7371 25.5594 18.3118 25.5594H19.557C19.8443 25.5594 20.0359 25.4637 20.1317 25.2724V25.1768C20.1317 25.1768 20.2275 25.0812 20.2275 24.9855C20.2275 24.8899 20.2275 24.7943 20.2275 24.6986C20.2275 24.4117 20.2275 24.1248 20.3233 23.8379C20.419 23.551 20.419 23.3598 20.5148 23.2641C20.6106 23.1685 20.7064 23.0729 20.7064 22.9772C20.8022 22.8816 20.898 22.8816 20.898 22.786H20.9937C21.1853 22.6903 21.3769 22.786 21.6642 22.9772C21.8558 23.1685 22.1431 23.3598 22.3347 23.6467C22.5263 23.9336 22.8136 24.2205 23.101 24.5074C23.3883 24.7943 23.6756 25.0812 23.8672 25.1768L24.0588 25.2724C24.2503 25.3681 24.4419 25.4637 24.6335 25.5594C24.825 25.655 25.1124 25.655 25.2082 25.655H27.9859C28.2732 25.655 28.4648 25.655 28.6563 25.5594C28.8479 25.4637 28.9437 25.3681 28.9437 25.2724C28.9437 25.1768 28.9437 25.0812 28.9437 24.8899C29.231 24.6986 29.231 24.603 29.231 24.603Z" fill="white"/>
</svg>
