<svg width="39" height="39" viewBox="0 0 39 39" fill="none" xmlns="http://www.w3.org/2000/svg">
<path d="M19.4869 38.3301C9.04663 38.3301 0.521973 29.8187 0.521973 19.3946C0.521973 8.9706 9.04663 0.459229 19.4869 0.459229C29.9273 0.459229 38.4519 8.9706 38.4519 19.3946C38.4519 29.8187 29.9273 38.3301 19.4869 38.3301ZM19.4869 1.89373C9.81289 1.89373 1.95871 9.73567 1.95871 19.3946C1.95871 29.0536 9.81289 36.8956 19.4869 36.8956C29.161 36.8956 37.0152 29.0536 37.0152 19.3946C37.0152 9.73567 29.161 1.89373 19.4869 1.89373Z" fill="white"/>
<path d="M19.4868 11.1699C22.1687 11.1699 22.4561 11.1699 23.5097 11.2656C24.4675 11.2656 25.0422 11.4568 25.3295 11.6481C25.8085 11.8394 26.0958 12.0306 26.4789 12.4132C26.8621 12.7957 27.0536 13.0826 27.2452 13.5608C27.341 13.9433 27.5325 14.4215 27.6283 15.3778C27.6283 16.4298 27.7241 16.7167 27.7241 19.3944C27.7241 22.0722 27.7241 22.3591 27.6283 23.411C27.6283 24.3674 27.4368 24.9412 27.2452 25.2281C27.0536 25.7062 26.8621 25.9931 26.4789 26.3757C26.0958 26.7582 25.8085 26.9495 25.3295 27.1407C24.9464 27.2364 24.4675 27.4276 23.5097 27.5233C22.4561 27.6189 22.1687 27.6189 19.4868 27.6189C16.8049 27.6189 16.5175 27.6189 15.4639 27.5233C14.5061 27.5233 13.9314 27.332 13.644 27.1407C13.1651 26.9495 12.8778 26.7582 12.4947 26.3757C12.1115 25.9931 11.92 25.7062 11.7284 25.2281C11.6326 24.8455 11.441 24.3674 11.3453 23.411C11.2495 22.3591 11.2495 22.0722 11.2495 19.3944C11.2495 16.7167 11.2495 16.4298 11.3453 15.3778C11.3453 14.4215 11.5368 13.8477 11.7284 13.5608C11.92 13.0826 12.1115 12.7957 12.4947 12.4132C12.8778 12.0306 13.1651 11.8394 13.644 11.6481C14.0272 11.5525 14.5061 11.3612 15.4639 11.2656C16.5175 11.1699 16.8049 11.1699 19.4868 11.1699ZM19.4868 9.35291C16.8049 9.35291 16.4217 9.3529 15.3681 9.44854C14.3145 9.54417 13.5483 9.63981 12.9736 9.92671C12.3031 10.2136 11.7284 10.5005 11.2495 11.0743C10.6748 11.6481 10.3874 12.2219 10.1001 12.7957C9.81274 13.4651 9.71696 14.1346 9.62117 15.1865C9.52539 16.2385 9.52539 16.621 9.52539 19.2988C9.52539 21.9765 9.52539 22.3591 9.62117 23.411C9.71696 24.463 9.81274 25.2281 10.1001 25.8019C10.3874 26.4713 10.6748 27.0451 11.2495 27.5233C11.8242 28.0971 12.3989 28.384 12.9736 28.6709C13.644 28.9578 14.3145 29.0534 15.3681 29.149C16.4217 29.2447 16.8049 29.2447 19.4868 29.2447C22.1687 29.2447 22.5518 29.2447 23.6054 29.149C24.6591 29.0534 25.4253 28.9578 26 28.6709C26.6705 28.384 27.2452 28.0971 27.7241 27.5233C28.2988 26.9495 28.5861 26.3757 28.8735 25.8019C29.1608 25.1324 29.2566 24.463 29.3524 23.411C29.4482 22.3591 29.4482 21.9765 29.4482 19.2988C29.4482 16.621 29.4482 16.2385 29.3524 15.1865C29.2566 14.1346 29.1608 13.3695 28.8735 12.7957C28.5861 12.1263 28.2988 11.5525 27.7241 11.0743C27.1494 10.5005 26.5747 10.2136 26 9.92671C25.3295 9.63981 24.6591 9.54417 23.6054 9.44854C22.5518 9.44854 22.1687 9.35291 19.4868 9.35291Z" fill="white"/>
<path d="M19.4867 14.2289C16.6132 14.2289 14.3145 16.5241 14.3145 19.3931C14.3145 22.2621 16.6132 24.5573 19.4867 24.5573C22.3602 24.5573 24.659 22.2621 24.659 19.3931C24.5632 16.5241 22.2644 14.2289 19.4867 14.2289ZM19.4867 22.7403C17.6668 22.7403 16.1343 21.2101 16.1343 19.3931C16.1343 17.5761 17.6668 16.0459 19.4867 16.0459C21.3066 16.0459 22.8391 17.5761 22.8391 19.3931C22.8391 21.2101 21.3066 22.7403 19.4867 22.7403Z" fill="white"/>
<path d="M25.9999 14.0378C25.9999 14.7072 25.4252 15.281 24.7547 15.281C24.0842 15.281 23.5095 14.7072 23.5095 14.0378C23.5095 13.3684 24.0842 12.7946 24.7547 12.7946C25.4252 12.8902 25.9999 13.3684 25.9999 14.0378Z" fill="white"/>
</svg>
