<svg width="39" height="39" viewBox="0 0 39 39" fill="none" xmlns="http://www.w3.org/2000/svg">
<path d="M19.6827 38.4162C9.24243 38.4162 0.717773 29.9049 0.717773 19.4808C0.717773 9.05679 9.24243 0.54541 19.6827 0.54541C30.1231 0.54541 38.6477 9.05679 38.6477 19.4808C38.6477 29.9049 30.1231 38.4162 19.6827 38.4162ZM19.6827 1.97991C10.0087 1.97991 2.15451 9.82185 2.15451 19.4808C2.15451 29.1398 10.0087 36.9817 19.6827 36.9817C29.3568 36.9817 37.211 29.1398 37.211 19.4808C37.211 9.82185 29.3568 1.97991 19.6827 1.97991Z" fill="white"/>
<path d="M19.5871 25.2192C17.6714 25.2192 15.7558 25.2192 13.8401 25.1235C13.2654 25.1235 12.5949 25.0279 12.0202 24.741C11.6371 24.5497 11.3498 24.2628 11.1582 23.8803C10.8708 23.2109 10.7751 22.5414 10.6793 21.7764C10.5835 20.3419 10.5835 18.8117 10.5835 17.3772C10.5835 16.6122 10.6793 15.8471 10.8708 15.082C10.9666 14.7951 11.0624 14.5082 11.1582 14.2213C11.4455 13.5519 12.0202 13.265 12.7865 13.0737C13.3612 12.9781 13.9359 12.9781 14.5106 12.9781C16.522 12.8824 18.5335 12.8824 20.5449 12.8824C22.0774 12.8824 23.6099 12.9781 25.1425 12.9781C25.6214 12.9781 26.1003 12.9781 26.5792 13.1693C27.1539 13.3606 27.6328 13.7431 27.9202 14.4126C28.2075 14.9864 28.2075 15.6558 28.3033 16.2296C28.3991 17.951 28.3991 19.6724 28.3033 21.4895C28.3033 22.0633 28.2075 22.6371 28.1117 23.2109C27.7286 24.5497 26.9623 25.0279 25.7172 25.1235C24.3762 25.2192 23.131 25.2192 21.7901 25.3148C21.1196 25.2192 20.3533 25.2192 19.5871 25.2192ZM17.6714 21.5851C19.3955 20.6288 21.1196 19.6724 22.8437 18.7161C21.1196 17.7598 19.3955 16.8034 17.6714 15.8471C17.6714 17.7598 17.6714 19.6724 17.6714 21.5851Z" fill="white"/>
</svg>
