<svg width="170" height="36" viewBox="0 0 170 36" fill="none" xmlns="http://www.w3.org/2000/svg">
<path d="M169.866 22.5729H169.832H154.972C155.579 25.125 157.398 27.0391 160.701 27.0391C162.554 27.0391 163.902 26.401 164.643 25.1604H169.664C168.552 28.9177 164.946 31.4343 160.532 31.4343C154.366 31.4343 150.221 26.6492 150.221 20.6234C150.221 14.5623 154.433 9.95435 160.33 9.95435C165.991 9.95435 170.001 14.1724 170.001 20.269C170.001 21.0133 170.001 21.7931 169.866 22.5729ZM154.972 18.6739H165.486C165.081 15.9092 163.363 13.8888 160.465 13.8888C157.432 13.8888 155.579 16.0155 154.972 18.6739Z" fill="white"/>
<path d="M114.872 9.77692C112.547 9.77692 110.525 10.6276 108.908 12.1163V10.4504H100.888V11.5137C102.708 11.5137 104.19 13.0733 104.19 14.9874V22.3601V26.2236V30.7961H108.908V26.2236V21.403V17.2914C110.39 15.3419 112.21 14.3139 113.895 14.3139C116.894 14.3139 118.646 16.2989 118.646 19.8789V22.5018V26.2236V30.7961H123.397V26.2236V24.2032V19.5599C123.397 13.6759 119.994 9.77692 114.872 9.77692Z" fill="white"/>
<path d="M20.3868 26.259C20.3868 26.259 20.3868 26.2236 20.3868 26.259V14.9874V10.4504H15.6692V11.8682C14.0855 10.663 12.0637 9.98958 9.7386 9.98958C4.34712 9.95413 0.000244141 14.7038 0.000244141 20.6232C0.000244141 26.5072 4.34712 31.2569 9.7386 31.2569C12.0637 31.2569 14.0855 30.5834 15.6692 29.3782V30.7961H23.4869V29.7327C21.7346 29.6264 20.3868 28.1022 20.3868 26.259ZM15.6692 24.5931C13.9844 26.3299 12.2659 26.968 10.4462 26.968C7.14396 26.968 4.71779 23.9905 4.71779 20.6587C4.71779 17.2559 7.14396 14.2785 10.4462 14.2785C12.2996 14.2785 14.0181 14.9165 15.6692 16.6533V24.5931Z" fill="white"/>
<path d="M97.7881 26.2592C97.7881 26.2592 97.7881 26.2238 97.7881 26.2592V14.9876V10.4505H93.0706V11.8684C91.4868 10.6632 89.465 9.98975 87.14 9.98975C81.7485 9.98975 77.4016 14.7394 77.4016 20.6588C77.4016 26.5428 81.7485 31.2925 87.14 31.2925C89.465 31.2925 91.4868 30.619 93.0706 29.4139V30.8317H100.888V29.7683C99.136 29.6265 97.7881 28.1024 97.7881 26.2592ZM93.0706 24.5933C91.3857 26.3301 89.6672 26.9681 87.8476 26.9681C84.5453 26.9681 82.1192 23.9907 82.1192 20.6588C82.1192 17.2561 84.5453 14.2786 87.8476 14.2786C89.7009 14.2786 91.4194 14.9167 93.0706 16.6535V24.5933Z" fill="white"/>
<path d="M137.381 26.7909C133.978 26.7909 131.417 24.0971 131.417 20.6234C131.417 17.1497 133.978 14.4559 137.381 14.4559C139.74 14.4559 141.56 15.8737 142.099 18.0713H146.917C146.244 13.2862 142.604 10.0252 137.381 10.0252C131.215 10.0252 126.699 14.5268 126.699 20.6588C126.699 26.7909 131.215 31.2925 137.381 31.2925C142.604 31.2925 146.244 28.0315 146.917 23.2109H142.099C141.56 25.3731 139.74 26.7909 137.381 26.7909Z" fill="white"/>
<path d="M45.0528 26.259C45.0528 26.259 45.0528 26.2236 45.0528 26.259V0.454712H40.3352V11.8682C38.7515 10.663 36.7297 9.98954 34.4046 9.98954C29.0131 9.98954 24.6663 14.7392 24.6663 20.6232C24.6663 26.578 29.0131 31.2923 34.4046 31.2923C36.7297 31.2923 38.7515 30.6188 40.3352 29.3428V30.796H48.3551V29.7681C46.5354 29.7327 45.0528 28.1731 45.0528 26.259ZM40.3352 24.5931C38.6504 26.3299 36.9319 26.9679 35.1123 26.9679C31.81 26.9679 29.3838 23.9905 29.3838 20.5877C29.3838 17.2204 31.81 14.2784 35.1123 14.2784C36.9656 14.2784 38.6841 14.9165 40.3352 16.8305V24.5931Z" fill="white"/>
<path d="M75.4684 0.454712L71.3237 6.3741L59.0918 23.9196L54.5427 18.0002L49.9937 12.0808C47.7023 15.3418 47.9045 20.6586 50.398 23.9551L59.4624 35.8293L75.8727 12.3289C78.1304 9.03251 77.9619 3.71569 75.4684 0.454712Z" fill="#E53728"/>
</svg>
